<svg width="264" height="280" viewBox="0 0 264 280" fill="none" xmlns="http://www.w3.org/2000/svg">
	<g id="avataaars-side-eyes 1">
		<g id="avataaars raised eyebrow 1">
			<g mask="url(#mask0)">
				<g id="Group">
					<g id="Avatar">
						<mask id="mask1" mask-type="alpha" maskUnits="userSpaceOnUse" x="32" y="36" width="200" height="244">
							<g id="mask1">
								<g id="mask1_2">
									<path id="Vector 2" d="M156 180.611V199H160C199.765 199 232 231.235 232 271V280H32V271C32 231.235 64.235 199 104 199H108V180.611C90.763 172.422 78.372 155.687 76.305 135.881C70.48 135.058 66 130.052 66 124V110C66 104.054 70.325 99.118 76 98.166V92C76 61.072 101.072 36 132 36C162.928 36 188 61.072 188 92V98.166C193.675 99.118 198 104.054 198 110V124C198 130.052 193.52 135.058 187.695 135.881C185.628 155.687 173.237 172.422 156 180.611Z" fill="white" />
								</g>
							</g>
						</mask>
						<g mask="url(#mask1)">
							<g id="Group_2">
								<g id="BodyGroup">
									<path id="Shape" d="M156 180.611V199H160C199.765 199 232 231.235 232 271V280H32V271C32 231.235 64.235 199 104 199H108V180.611C90.763 172.422 78.372 155.687 76.305 135.881C70.48 135.058 66 130.052 66 124V110C66 104.054 70.325 99.118 76 98.166V92C76 61.072 101.072 36 132 36C162.928 36 188 61.072 188 92V98.166C193.675 99.118 198 104.054 198 110V124C198 130.052 193.52 135.058 187.695 135.881C185.628 155.687 173.237 172.422 156 180.611Z" fill="#D0C6AC" />
									<path id="BodyRect" fill-rule="evenodd" clip-rule="evenodd" d="M0 36H264V280H0V36Z" fill="#FFDBB4" />
									<path id="Shadow" fill-rule="evenodd" clip-rule="evenodd" d="M188 115V138C188 168.928 162.928 194 132 194C101.072 194 76 168.928 76 138V115V130C76 160.928 101.072 186 132 186C162.928 186 188 160.928 188 130V115Z" fill="black" fill-opacity="0.1" />
								</g>
							</g>
						</g>
						<mask id="mask2" mask-type="alpha" maskUnits="userSpaceOnUse" x="32" y="199" width="200" height="81">
							<g id="mask2">
								<g id="mask2_2">
									<path id="Vector 3" fill-rule="evenodd" clip-rule="evenodd" d="M105.192 199.052H104C64.235 199.052 32 231.287 32 271.052V280H232V271.052C232 231.287 199.765 199.052 160 199.052H158.808C158.935 200.035 159 201.036 159 202.052C159 215.859 146.912 227.052 132 227.052C117.088 227.052 105 215.859 105 202.052C105 201.036 105.065 200.035 105.192 199.052V199.052Z" fill="white" />
								</g>
							</g>
						</mask>
						<g mask="url(#mask2)">
							<g id="Group_3">
								<g id="ClothesGroup">
									<path id="Sweater" fill-rule="evenodd" clip-rule="evenodd" d="M105.192 199.052H104C64.235 199.052 32 231.287 32 271.052V280H232V271.052C232 231.287 199.765 199.052 160 199.052H158.808C158.935 200.035 159 201.036 159 202.052C159 215.859 146.912 227.052 132 227.052C117.088 227.052 105 215.859 105 202.052C105 201.036 105.065 200.035 105.192 199.052V199.052Z" fill="#262E33" />
									<path id="ClothesRect" fill-rule="evenodd" clip-rule="evenodd" d="M0 170H264V280H0V170Z" fill="#262E33" />
									<path id="Collar" fill-rule="evenodd" clip-rule="evenodd" d="M156 192.28C162.182 196.835 166 203.106 166 210.028C166 217.233 161.863 223.733 155.229 228.328L149.579 223.876L145 224.208L146 221.057L145.922 220.996C152.022 217.853 156 212.7 156 206.876V192.28V192.28ZM108 191.571C101.233 196.174 97 202.74 97 210.028C97 217.426 101.362 224.08 108.308 228.692L114.421 223.876L119 224.208L118 221.057L118.078 220.996C111.978 217.853 108 212.7 108 206.876V191.571V191.571Z" fill="#F2F2F2" />
								</g>
							</g>
						</g>
						<mask id="mask3" mask-type="alpha" maskUnits="userSpaceOnUse" x="0" y="0" width="264" height="280">
							<g id="mask3">
								<g id="mask3_2">
									<path id="Vector 4" fill-rule="evenodd" clip-rule="evenodd" d="M0 0H264V280H0V0Z" fill="white" />
								</g>
							</g>
						</mask>
						<g mask="url(#mask3)">
							<g id="Group_4">
								<g id="NoseGroup">
									<path id="Nose" fill-rule="evenodd" clip-rule="evenodd" d="M120 130C120 134.418 125.373 138 132 138C138.627 138 144 134.418 144 130" fill="black" fill-opacity="0.16" />
								</g>
								<g id="TopGroup">
									<mask id="mask4" mask-type="alpha" maskUnits="userSpaceOnUse" x="74" y="98" width="115" height="89">
										<g id="mask4">
											<g id="mask4_2">
												<path id="Vector 5" fill-rule="evenodd" clip-rule="evenodd" d="M149.428 170.169C146.915 172.463 144.238 173.494 140.853 172.773C140.271 172.649 137.896 168.235 132 168.235C126.103 168.235 123.73 172.649 123.147 172.773C119.762 173.494 117.085 172.463 114.571 170.169C109.846 165.856 105.917 159.909 108.278 153.419C109.508 150.037 111.51 146.324 115.151 145.246C119.038 144.096 124.497 145.244 128.415 144.458C129.685 144.204 131.071 143.751 132 143C132.929 143.75 134.316 144.204 135.585 144.458C139.503 145.244 144.961 144.096 148.849 145.246C152.489 146.324 154.491 150.036 155.722 153.419C158.083 159.909 154.154 165.856 149.428 170.169ZM188.081 98C184.671 106.4 185.988 116.858 185.357 125.676C184.844 132.843 183.337 143.586 176.973 148.215C173.718 150.582 167.794 154.56 163.542 153.45C160.615 152.686 160.302 144.29 156.455 141.147C152.092 137.582 146.643 136.016 141.149 136.257C138.779 136.362 133.984 136.337 131.999 138.16C130.016 136.337 125.222 136.362 122.851 136.258C117.357 136.016 111.908 137.582 107.545 141.147C103.698 144.29 103.385 152.687 100.458 153.45C96.206 154.56 90.282 150.582 87.027 148.215C80.662 143.585 79.157 132.843 78.643 125.675C78.013 116.858 79.329 106.4 75.919 98C74.259 98 75.354 114.129 75.354 114.129V134.485C75.386 149.773 84.935 172.655 106.108 181.393C111.286 183.53 123.015 187 132 187C140.985 187 152.714 183.86 157.892 181.723C179.065 172.986 188.614 149.773 188.646 134.485V114.13C188.646 114.13 189.74 98 188.081 98Z" fill="white" />
											</g>
										</g>
									</mask>
									<g mask="url(#mask4)">
										<g id="Group_5">
											<g id="BeardGroup">
												<path id="Beard" fill-rule="evenodd" clip-rule="evenodd" d="M149.428 170.169C146.915 172.463 144.238 173.494 140.853 172.773C140.271 172.649 137.896 168.235 132 168.235C126.103 168.235 123.73 172.649 123.147 172.773C119.762 173.494 117.085 172.463 114.571 170.169C109.846 165.856 105.917 159.909 108.278 153.419C109.508 150.037 111.51 146.324 115.151 145.246C119.038 144.096 124.497 145.244 128.415 144.458C129.685 144.204 131.071 143.751 132 143C132.929 143.75 134.316 144.204 135.585 144.458C139.503 145.244 144.961 144.096 148.849 145.246C152.489 146.324 154.491 150.036 155.722 153.419C158.083 159.909 154.154 165.856 149.428 170.169ZM188.081 98C184.671 106.4 185.988 116.858 185.357 125.676C184.844 132.843 183.337 143.586 176.973 148.215C173.718 150.582 167.794 154.56 163.542 153.45C160.615 152.686 160.302 144.29 156.455 141.147C152.092 137.582 146.643 136.016 141.149 136.257C138.779 136.362 133.984 136.337 131.999 138.16C130.016 136.337 125.222 136.362 122.851 136.258C117.357 136.016 111.908 137.582 107.545 141.147C103.698 144.29 103.385 152.687 100.458 153.45C96.206 154.56 90.282 150.582 87.027 148.215C80.662 143.585 79.157 132.843 78.643 125.675C78.013 116.858 79.329 106.4 75.919 98C74.259 98 75.354 114.129 75.354 114.129V134.485C75.386 149.773 84.935 172.655 106.108 181.393C111.286 183.53 123.015 187 132 187C140.985 187 152.714 183.86 157.892 181.723C179.065 172.986 188.614 149.773 188.646 134.485V114.13C188.646 114.13 189.74 98 188.081 98Z" fill="#FFDBB4" />
												<path id="BeardRect" fill-rule="evenodd" clip-rule="evenodd" d="M16 72H280V316H16V72Z" fill="#724133" fill-opacity="0.41" />
											</g>
										</g>
									</g>
									<mask id="mask5" mask-type="alpha" maskUnits="userSpaceOnUse" x="74" y="34" width="116" height="66">
										<g id="mask5">
											<g id="mask5_2">
												<path id="Vector 6" fill-rule="evenodd" clip-rule="evenodd" d="M75 98C75.347 99.488 76.673 99.223 77 98C76.537 96.446 80.296 69.248 90 62C93.618 59.483 113.008 57.232 132.313 57.246C151.409 57.259 170.42 59.51 174 62C183.704 69.248 187.463 96.446 187 98C187.327 99.223 188.653 99.488 189 98C189.72 87.702 189 34.274 132 35C75 35.726 74.28 87.702 75 98Z" fill="white" />
											</g>
										</g>
									</mask>
									<g mask="url(#mask5)">
										<g id="Group_6">
											<g id="HairGroup">
												<path id="Hair" fill-rule="evenodd" clip-rule="evenodd" d="M75 98C75.347 99.488 76.673 99.223 77 98C76.537 96.446 80.296 69.248 90 62C93.618 59.483 113.008 57.232 132.313 57.246C151.409 57.259 170.42 59.51 174 62C183.704 69.248 187.463 96.446 187 98C187.327 99.223 188.653 99.488 189 98C189.72 87.702 189 34.274 132 35C75 35.726 74.28 87.702 75 98Z" fill="#28354B" />
												<path id="HairRect" fill-rule="evenodd" clip-rule="evenodd" d="M74 34H338V314H74V34Z" fill="#724133" />
											</g>
										</g>
									</g>
								</g>
								<g id="MouthGroup">
									<path id="Mouth" fill-rule="evenodd" clip-rule="evenodd" d="M118 149C118 156.732 124.268 163 132 163C139.732 163 146 156.732 146 149" fill="black" fill-opacity="0.7" />
								</g>
								<g id="EyeGroup">
									<path id="Eye" d="M103.241 106.346C102.463 107.357 102 108.625 102 110C102 113.314 104.686 116 108 116C111.314 116 114 113.314 114 110C114 109.71 113.979 109.424 113.94 109.145C113.947 108.923 113.91 108.671 113.815 108.407C113.77 108.281 113.722 108.157 113.671 108.035C113.337 107.072 112.765 106.22 112.025 105.551C109.899 103.317 106.506 102 102.998 102C98.1644 102 94.0067 104.649 92.1602 108.447C91.6201 109.558 92.5468 110.3 93.4375 109.572C95.8738 107.579 99.2572 106.344 102.998 106.344C103.079 106.344 103.16 106.344 103.241 106.346Z" fill="black" fill-opacity="0.6" />
									<path id="Eye_2" d="M161.241 106.346C160.463 107.357 160 108.625 160 110C160 113.314 162.686 116 166 116C169.314 116 172 113.314 172 110C172 109.71 171.979 109.424 171.94 109.145C171.947 108.923 171.91 108.671 171.815 108.407C171.77 108.281 171.722 108.157 171.671 108.035C171.337 107.072 170.765 106.22 170.025 105.551C167.899 103.317 164.506 102 160.998 102C156.164 102 152.007 104.649 150.16 108.447C149.62 109.558 150.547 110.3 151.438 109.572C153.874 107.579 157.257 106.344 160.998 106.344C161.079 106.344 161.16 106.344 161.241 106.346Z" fill="black" fill-opacity="0.6" />
								</g>
								<g id="EyebrowGroup">
									<path id="LeftEyebrow" d="M91.591 98.6704C96.087 92.3444 105.603 89.1624 115.347 92.3044C115.852 92.4672 116.401 92.4228 116.873 92.181C117.345 91.9392 117.702 91.5197 117.865 91.0149C118.027 90.51 117.983 89.9612 117.741 89.4891C117.499 89.0169 117.08 88.6602 116.575 88.4974C105.167 84.8174 93.835 88.6074 88.331 96.3534C88.174 96.5672 88.061 96.8101 87.9988 97.0679C87.9365 97.3258 87.9262 97.5935 87.9683 97.8554C88.0105 98.1173 88.1044 98.3682 88.2444 98.5934C88.3845 98.8187 88.568 99.0139 88.7842 99.1676C89.0005 99.3212 89.2451 99.4304 89.5039 99.4886C89.7627 99.5468 90.0305 99.553 90.2917 99.5067C90.5529 99.4604 90.8023 99.3627 91.0254 99.2191C91.2485 99.0755 91.4407 98.889 91.591 98.6704V98.6704Z" fill="black" fill-opacity="0.6" />
									<path id="RightEyebrow" d="M172.377 98.158C168.462 92.649 157.73 89.56 148.485 91.83C147.973 91.9467 147.437 91.8576 146.99 91.5821C146.544 91.3066 146.223 90.8667 146.098 90.3571C145.973 89.8476 146.053 89.3093 146.321 88.8583C146.589 88.4072 147.024 88.0796 147.531 87.946C158.267 85.309 170.696 88.886 175.638 95.841C175.795 96.0547 175.908 96.2975 175.971 96.5554C176.033 96.8133 176.044 97.081 176.002 97.343C175.959 97.6049 175.865 97.8559 175.725 98.0811C175.585 98.3064 175.401 98.5015 175.185 98.655C174.969 98.8093 174.724 98.9188 174.465 98.977C174.206 99.0352 173.938 99.041 173.677 98.994C173.416 98.9476 173.167 98.8498 172.944 98.7063C172.721 98.5628 172.528 98.3764 172.378 98.158H172.377V98.158Z" fill="black" fill-opacity="0.6" />
								</g>
							</g>
						</g>
					</g>
				</g>
			</g>
		</g>
	</g>
</svg>
