<svg width="264" height="280" xmlns="http://www.w3.org/2000/svg" xmlns:xlink="http://www.w3.org/1999/xlink">
	<defs>
		<path d="M12 160c0 66.274 53.726 120 120 120s120-53.726 120-120h12V0H0v160h12z" id="path-3" />
		<path d="M124 144.611V163h4c39.765 0 72 32.235 72 72v9H0v-9c0-39.765 32.235-72 72-72h4v-18.389c-17.237-8.189-29.628-24.924-31.695-44.73C38.48 99.058 34 94.052 34 88V74c0-5.946 4.325-10.882 10-11.834V56c0-30.928 25.072-56 56-56s56 25.072 56 56v6.166c5.675.952 10 5.888 10 11.834v14c0 6.052-4.48 11.058-10.305 11.881-2.067 19.806-14.458 36.541-31.695 44.73z" id="path-5" />
		<circle id="path-1" cx="120" cy="120" r="120" />
	</defs>
	<g id="Avataaar" stroke="none" stroke-width="1" fill="none" fill-rule="evenodd">
		<g id="Avataaar/Circle">
			<mask id="mask-4" fill="#fff">
				<use xlink:href="#path-3" />
			</mask>
			<g id="Avataaar" stroke-width="1" fill-rule="evenodd" mask="url(#mask-4)">

			<!-- Body -->
				<g id="Body" transform="translate(32 36)">
					<mask id="mask-6" fill="#fff">
						<use xlink:href="#path-5" />
					</mask>
					<use fill="#D0C6AC" xlink:href="#path-5" />
					<g id="Skin/ðŸ‘¶ðŸ½-03-Brown" mask="url(#mask-6)" fill="#FFDBB4">
						<path d="M0 0h264v244H0z" transform="translate(-32)" id="Color" />
					</g>
					<path d="M156 79v23c0 30.928-25.072 56-56 56s-56-25.072-56-56V79v15c0 30.928 25.072 56 56 56s56-25.072 56-56V79z" id="Neck-Shadow" fill-opacity=".1" fill="#000" mask="url(#mask-6)" />
				</g>
			
			<!-- Clothing -->
				<g id="Clothing/Collar-+-Sweater" transform="translate(0 170)">
					<defs>
						<path d="M105.192 29.052H104c-39.765 0-72 32.235-72 72V110h200v-8.948c0-39.765-32.235-72-72-72h-1.192c.127.983.192 1.984.192 3 0 13.807-12.088 25-27 25s-27-11.193-27-25c0-1.016.065-2.017.192-3z" id="react-path-320" />
					</defs>
					<mask id="react-mask-321" fill="#fff">
						<use xlink:href="#react-path-320" />
					</mask>
					<use id="Clothes" fill="#262E33" fill-rule="evenodd" xlink:href="#react-path-320" />
					<g id="Color/Palette/Gray-01" mask="url(#react-mask-321)" fill-rule="evenodd" fill="#262E33">
						<path id="ðŸ–Color" d="M0 0h264v110H0z" />
					</g>
					<path d="M156 22.28c6.182 4.555 10 10.826 10 17.748 0 7.205-4.137 13.705-10.771 18.3l-5.65-4.452-4.579.332 1-3.151-.078-.061C152.022 47.853 156 42.7 156 36.876V22.28zm-48-.709c-6.767 4.603-11 11.169-11 18.457 0 7.398 4.362 14.052 11.308 18.664l6.113-4.816 4.579.332-1-3.151.078-.061C111.978 47.853 108 42.7 108 36.876V21.572z" id="Collar" fill="#F2F2F2" fill-rule="evenodd" />
				</g>

			<!-- Face -->
				<g id="Face" transform="translate(76 82)" fill="#000">
					<g id="MouthDefault" transform="translate(2 52)" fill-opacity=".7">
						<path d="M40 15c0 7.732 6.268 14 14 14s14-6.268 14-14" id="Mouth" />
					</g>
					<g id="Nose/Default" transform="translate(28 40)" fill-opacity=".16">
						<path d="M16 8c0 4.418 5.373 8 12 8s12-3.582 12-8" id="Nose" />
					</g>
					<g id="EyesDefault" transform="translate(0 8)" fill-opacity=".6">
						<circle id="Eye" cx="30" cy="22" r="6" />
						<circle id="Eye" cx="82" cy="22" r="6" />
					</g>
					<g id="EyebrowOutlineUp-Down" fill-opacity=".6" fill-rule="nonzero">
						<path d="M15.591 14.162c4.496-6.326 14.012-9.508 23.756-6.366a2 2 0 101.228-3.807c-11.408-3.68-22.74.11-28.244 7.856a2 2 0 103.26 2.317z" id="Eyebrow" />
						<path d="M73.638 21.158c3.915-5.509 14.647-8.598 23.892-6.328a2 2 0 00.954-3.884c-10.736-2.637-23.165.94-28.107 7.895a2 2 0 103.26 2.317z" id="Eyebrow" transform="matrix(-1 0 0 1 170.015 0)" />
					</g>
				</g>

			<!-- Top -->
				<g id="Top" stroke-width="1" fill-rule="evenodd">
					<defs>
						<path id="react-path-212" d="M0 0h264v280H0z" />
						<path d="M1 64c.347 1.488 1.673 1.223 2 0-.463-1.554 3.296-28.752 13-36 3.618-2.517 23.008-4.768 42.313-4.754C77.409 23.259 96.42 25.51 100 28c9.704 7.248 13.463 34.446 13 36 .327 1.223 1.653 1.488 2 0 .72-10.298 0-63.726-57-63C1 1.726.28 53.702 1 64z" id="react-path-213" />
						<filter x="-.8%" y="-2%" width="101.5%" height="108%" filterUnits="objectBoundingBox" id="react-filter-209">
							<feOffset dy="2" in="SourceAlpha" result="shadowOffsetOuter1" />
							<feColorMatrix values="0 0 0 0 0 0 0 0 0 0 0 0 0 0 0 0 0 0 0.16 0" in="shadowOffsetOuter1" result="shadowMatrixOuter1" />
							<feMerge>
								<feMergeNode in="shadowMatrixOuter1" />
								<feMergeNode in="SourceGraphic" />
							</feMerge>
						</filter>
					</defs>
					<mask id="react-mask-210" fill="#fff">
						<use xlink:href="#react-path-212" />
					</mask>
					<g id="Top/Short-Hair/The-Caesar" mask="url(#react-mask-210)">
						<g transform="translate(-1)">
							<g id="Facial-Hair/Beard-Light" transform="translate(49 72)">
								<defs>
									<path d="M101.428 98.169c-2.513 2.294-5.19 3.325-8.575 2.604-.582-.124-2.957-4.538-8.853-4.538-5.897 0-8.27 4.414-8.853 4.538-3.385.721-6.062-.31-8.576-2.604-4.725-4.313-8.654-10.26-6.293-16.75 1.23-3.382 3.232-7.095 6.873-8.173 3.887-1.15 9.346-.002 13.264-.788 1.27-.254 2.656-.707 3.585-1.458.929.75 2.316 1.204 3.585 1.458 3.918.786 9.376-.362 13.264.788 3.64 1.078 5.642 4.79 6.873 8.173 2.361 6.49-1.568 12.437-6.294 16.75M140.081 26c-3.41 8.4-2.093 18.858-2.724 27.676-.513 7.167-2.02 17.91-8.384 22.539-3.255 2.367-9.179 6.345-13.431 5.235-2.927-.764-3.24-9.16-7.087-12.303-4.363-3.565-9.812-5.131-15.306-4.89-2.37.105-7.165.08-9.15 1.903-1.983-1.823-6.777-1.798-9.148-1.902-5.494-.242-10.943 1.324-15.306 4.889-3.847 3.143-4.16 11.54-7.087 12.303-4.252 1.11-10.176-2.868-13.431-5.235-6.365-4.63-7.87-15.372-8.384-22.54-.63-8.817.686-19.275-2.724-27.675-1.66 0-.565 16.129-.565 16.129v20.356c.032 15.288 9.581 38.17 30.754 46.908C63.286 111.53 75.015 115 84 115s20.714-3.14 25.892-5.277c21.173-8.737 30.722-31.95 30.754-47.238V42.13S141.74 26 140.081 26" id="react-path-257" />
								</defs>
								<mask id="react-mask-256" fill="#fff">
									<use xlink:href="#react-path-257" />
								</mask>
								<use id="Lite-Beard" fill="#331B0C" fill-rule="evenodd" xlink:href="#react-path-257" />
								<g id="Color/Hair/Brown" mask="url(#react-mask-256)" fill="#724133">
									<path d="M0 0h264v244H0z" transform="translate(-32)" id="Color" />
								</g>
							</g>
							<g id="Hair" stroke-width="1" fill-rule="evenodd" transform="translate(75 34)">
								<mask id="react-mask-211" fill="#fff">
									<use xlink:href="#react-path-213" />
								</mask>
								<use id="Caesar" fill="#28354B" xlink:href="#react-path-213" />
								<g id="Skin/ðŸ‘¶ðŸ½-03-Brown" mask="url(#react-mask-211)" fill="#724133">
									<path d="M0 0h264v280H0z" id="Color" />
								</g>
							</g>
						</g>
					</g>
				</g>
			</g>
		</g>
	</g>
</svg>
