<svg width="618" height="154" viewBox="0 0 618 154" fill="none" xmlns="http://www.w3.org/2000/svg">
<g id="landscape 1">
<path id="Vector" d="M618 87.9191C612.001 88.4107 606.002 89.0428 599.003 89.8855C566.008 94.0988 465.025 113.621 397.036 117.132C330.047 120.573 207.666 96.9075 149.076 95.5034C90.3954 94.0988 0.999838 104.562 0.999838 104.562L0 105.194V154H618V87.9191Z" fill="#f2baff"/>
<path id="Vector_2" d="M0 113.091C5.99903 113.395 11.9981 113.786 18.9969 114.308C51.9916 116.917 152.975 129.002 220.964 131.176C287.953 133.306 410.334 118.655 468.924 117.786C527.605 116.917 617 123.394 617 123.394L618 123.785V154H309H0V113.091V113.091Z" fill="#eb94ff"/>
</g>
</svg>
