<svg xmlns="http://www.w3.org/2000/svg" viewBox="0 0 618.1 383.748">
	<path d="M618.1 219.083c-6 1.225-12 2.8-19 4.9-33 10.499-134 59.146-202 67.895-67 8.575-189.4-50.397-248-53.896C90.41 234.482 1 260.555 1 260.555l-1 1.575v121.618h618.1V219.083z" style="marker:none" color="#000" fill="#eeeff0" overflow="visible" />
	<path style="marker:none" d="M0 281.807c6 .759 12 1.734 19 3.034 33 6.5 134 36.616 202 42.033 67 5.308 189.4-31.2 248-33.367 58.69-2.166 148.1 13.975 148.1 13.975l1 .975v75.291H0v-101.94z" color="#000" fill="#e4e5e6" overflow="visible" />
</svg>
