<svg width="264" height="280" viewBox="0 0 264 280" fill="none" xmlns="http://www.w3.org/2000/svg">
	<g mask="url(#mask0)">
		<mask id="mask1" mask-type="alpha" maskUnits="userSpaceOnUse" x="32" y="36" width="200" height="244">
			<path d="M156 180.611V199H160C199.765 199 232 231.235 232 271V280H32V271C32 231.235 64.235 199 104 199H108V180.611C90.763 172.422 78.372 155.687 76.305 135.881C70.48 135.058 66 130.052 66 124V110C66 104.054 70.325 99.118 76 98.166V92C76 61.072 101.072 36 132 36C162.928 36 188 61.072 188 92V98.166C193.675 99.118 198 104.054 198 110V124C198 130.052 193.52 135.058 187.695 135.881C185.628 155.687 173.237 172.422 156 180.611Z" fill="white" />
		</mask>
		<g mask="url(#mask1)">
			<path d="M156 180.611V199H160C199.765 199 232 231.235 232 271V280H32V271C32 231.235 64.235 199 104 199H108V180.611C90.763 172.422 78.372 155.687 76.305 135.881C70.48 135.058 66 130.052 66 124V110C66 104.054 70.325 99.118 76 98.166V92C76 61.072 101.072 36 132 36C162.928 36 188 61.072 188 92V98.166C193.675 99.118 198 104.054 198 110V124C198 130.052 193.52 135.058 187.695 135.881C185.628 155.687 173.237 172.422 156 180.611Z" fill="#D0C6AC" />
			<path fill-rule="evenodd" clip-rule="evenodd" d="M0 36H264V280H0V36Z" fill="#FFDBB4" />
			<path fill-rule="evenodd" clip-rule="evenodd" d="M188 115V138C188 168.928 162.928 194 132 194C101.072 194 76 168.928 76 138V115V130C76 160.928 101.072 186 132 186C162.928 186 188 160.928 188 130V115Z" fill="black" fill-opacity="0.1" />
		</g>
		<mask id="mask2" mask-type="alpha" maskUnits="userSpaceOnUse" x="32" y="199" width="200" height="81">
			<path fill-rule="evenodd" clip-rule="evenodd" d="M105.192 199.052H104C64.235 199.052 32 231.287 32 271.052V280H232V271.052C232 231.287 199.765 199.052 160 199.052H158.808C158.935 200.035 159 201.036 159 202.052C159 215.859 146.912 227.052 132 227.052C117.088 227.052 105 215.859 105 202.052C105 201.036 105.065 200.035 105.192 199.052V199.052Z" fill="white" />
		</mask>
		<g mask="url(#mask2)">
			<path fill-rule="evenodd" clip-rule="evenodd" d="M105.192 199.052H104C64.235 199.052 32 231.287 32 271.052V280H232V271.052C232 231.287 199.765 199.052 160 199.052H158.808C158.935 200.035 159 201.036 159 202.052C159 215.859 146.912 227.052 132 227.052C117.088 227.052 105 215.859 105 202.052C105 201.036 105.065 200.035 105.192 199.052V199.052Z" fill="#262E33" />
			<path fill-rule="evenodd" clip-rule="evenodd" d="M0 170H264V280H0V170Z" fill="#262E33" />
			<path fill-rule="evenodd" clip-rule="evenodd" d="M156 192.28C162.182 196.835 166 203.106 166 210.028C166 217.233 161.863 223.733 155.229 228.328L149.579 223.876L145 224.208L146 221.057L145.922 220.996C152.022 217.853 156 212.7 156 206.876V192.28ZM108 191.571C101.233 196.174 97 202.74 97 210.028C97 217.426 101.362 224.08 108.308 228.692L114.421 223.876L119 224.208L118 221.057L118.078 220.996C111.978 217.853 108 212.7 108 206.876V191.572V191.571Z" fill="#F2F2F2" />
		</g>
		<path fill-rule="evenodd" clip-rule="evenodd" d="M132 151C136.142 151 139.5 153.239 139.5 156C139.5 158.761 136.142 161 132 161C127.858 161 124.5 158.761 124.5 156C124.5 153.239 127.858 151 132 151Z" fill="black" fill-opacity="0.7" />
		<path fill-rule="evenodd" clip-rule="evenodd" d="M120 130C120 134.418 125.373 138 132 138C138.627 138 144 134.418 144 130" fill="black" fill-opacity="0.16" />
		<path d="M106 118C109.314 118 112 115.314 112 112C112 108.686 109.314 106 106 106C102.686 106 100 108.686 100 112C100 115.314 102.686 118 106 118Z" fill="black" fill-opacity="0.6" />
		<path d="M158 118C161.314 118 164 115.314 164 112C164 108.686 161.314 106 158 106C154.686 106 152 108.686 152 112C152 115.314 154.686 118 158 118Z" fill="black" fill-opacity="0.6" />
		<path d="M91.591 103.67C96.087 97.3444 105.603 94.1624 115.347 97.3044C115.597 97.385 115.86 97.4156 116.122 97.3944C116.384 97.3733 116.639 97.3008 116.873 97.181C117.107 97.0613 117.314 96.8967 117.485 96.6966C117.655 96.4965 117.784 96.2648 117.865 96.0149C117.945 95.7649 117.976 95.5015 117.955 95.2397C117.933 94.9779 117.861 94.7228 117.741 94.4891C117.621 94.2553 117.457 94.0474 117.257 93.8772C117.057 93.7071 116.825 93.578 116.575 93.4974C105.167 89.8174 93.835 93.6074 88.331 101.353C88.174 101.567 88.061 101.81 87.9988 102.068C87.9365 102.326 87.9262 102.593 87.9683 102.855C88.0105 103.117 88.1044 103.368 88.2444 103.593C88.3845 103.819 88.568 104.014 88.7842 104.168C89.0005 104.321 89.2451 104.43 89.5039 104.489C89.7627 104.547 90.0305 104.553 90.2917 104.507C90.5529 104.46 90.8023 104.363 91.0254 104.219C91.2485 104.075 91.4407 103.889 91.591 103.67V103.67Z" fill="black" fill-opacity="0.6" />
		<path d="M172.377 103.158C168.462 97.649 157.73 94.56 148.485 96.83C147.973 96.9467 147.437 96.8576 146.99 96.5821C146.544 96.3066 146.223 95.8667 146.098 95.3571C145.973 94.8476 146.053 94.3093 146.321 93.8583C146.589 93.4072 147.024 93.0796 147.531 92.946C158.267 90.309 170.696 93.886 175.638 100.841C175.795 101.055 175.908 101.298 175.97 101.556C176.033 101.813 176.043 102.081 176.001 102.343C175.958 102.605 175.865 102.856 175.725 103.081C175.584 103.306 175.401 103.502 175.185 103.655C174.969 103.809 174.724 103.918 174.465 103.976C174.206 104.034 173.938 104.041 173.677 103.994C173.416 103.948 173.167 103.85 172.944 103.707C172.721 103.563 172.528 103.377 172.378 103.158H172.377Z" fill="black" fill-opacity="0.6" />
		<mask id="mask3" mask-type="alpha" maskUnits="userSpaceOnUse" x="0" y="0" width="264" height="280">
			<path fill-rule="evenodd" clip-rule="evenodd" d="M0 0H264V280H0V0Z" fill="white" />
		</mask>
		<g mask="url(#mask3)">
			<mask id="mask4" mask-type="alpha" maskUnits="userSpaceOnUse" x="74" y="98" width="115" height="89">
				<path fill-rule="evenodd" clip-rule="evenodd" d="M149.428 170.169C146.915 172.463 144.238 173.494 140.853 172.773C140.271 172.649 137.896 168.235 132 168.235C126.103 168.235 123.73 172.649 123.147 172.773C119.762 173.494 117.085 172.463 114.571 170.169C109.846 165.856 105.917 159.909 108.278 153.419C109.508 150.037 111.51 146.324 115.151 145.246C119.038 144.096 124.497 145.244 128.415 144.458C129.685 144.204 131.071 143.751 132 143C132.929 143.75 134.316 144.204 135.585 144.458C139.503 145.244 144.961 144.096 148.849 145.246C152.489 146.324 154.491 150.036 155.722 153.419C158.083 159.909 154.154 165.856 149.428 170.169V170.169ZM188.081 98C184.671 106.4 185.988 116.858 185.357 125.676C184.844 132.843 183.337 143.586 176.973 148.215C173.718 150.582 167.794 154.56 163.542 153.45C160.615 152.686 160.302 144.29 156.455 141.147C152.092 137.582 146.643 136.016 141.149 136.257C138.779 136.362 133.984 136.337 131.999 138.16C130.016 136.337 125.222 136.362 122.851 136.258C117.357 136.016 111.908 137.582 107.545 141.147C103.698 144.29 103.385 152.687 100.458 153.45C96.206 154.56 90.282 150.582 87.027 148.215C80.662 143.585 79.157 132.843 78.643 125.675C78.013 116.858 79.329 106.4 75.919 98C74.259 98 75.354 114.129 75.354 114.129V134.485C75.386 149.773 84.935 172.655 106.108 181.393C111.286 183.53 123.015 187 132 187C140.985 187 152.714 183.86 157.892 181.723C179.065 172.986 188.614 149.773 188.646 134.485V114.13C188.646 114.13 189.74 98 188.081 98Z" fill="white" />
			</mask>
			<g mask="url(#mask4)">
				<path fill-rule="evenodd" clip-rule="evenodd" d="M149.428 170.169C146.915 172.463 144.238 173.494 140.853 172.773C140.271 172.649 137.896 168.235 132 168.235C126.103 168.235 123.73 172.649 123.147 172.773C119.762 173.494 117.085 172.463 114.571 170.169C109.846 165.856 105.917 159.909 108.278 153.419C109.508 150.037 111.51 146.324 115.151 145.246C119.038 144.096 124.497 145.244 128.415 144.458C129.685 144.204 131.071 143.751 132 143C132.929 143.75 134.316 144.204 135.585 144.458C139.503 145.244 144.961 144.096 148.849 145.246C152.489 146.324 154.491 150.036 155.722 153.419C158.083 159.909 154.154 165.856 149.428 170.169V170.169ZM188.081 98C184.671 106.4 185.988 116.858 185.357 125.676C184.844 132.843 183.337 143.586 176.973 148.215C173.718 150.582 167.794 154.56 163.542 153.45C160.615 152.686 160.302 144.29 156.455 141.147C152.092 137.582 146.643 136.016 141.149 136.257C138.779 136.362 133.984 136.337 131.999 138.16C130.016 136.337 125.222 136.362 122.851 136.258C117.357 136.016 111.908 137.582 107.545 141.147C103.698 144.29 103.385 152.687 100.458 153.45C96.206 154.56 90.282 150.582 87.027 148.215C80.662 143.585 79.157 132.843 78.643 125.675C78.013 116.858 79.329 106.4 75.919 98C74.259 98 75.354 114.129 75.354 114.129V134.485C75.386 149.773 84.935 172.655 106.108 181.393C111.286 183.53 123.015 187 132 187C140.985 187 152.714 183.86 157.892 181.723C179.065 172.986 188.614 149.773 188.646 134.485V114.13C188.646 114.13 189.74 98 188.081 98Z" fill="#FFDBB4" />
				<path fill-rule="evenodd" clip-rule="evenodd" d="M16 72H280V316H16V72Z" fill="#724133" fill-opacity="0.42" />
			</g>
			<mask id="mask5" mask-type="alpha" maskUnits="userSpaceOnUse" x="74" y="34" width="116" height="66">
				<path fill-rule="evenodd" clip-rule="evenodd" d="M75 98C75.347 99.488 76.673 99.223 77 98C76.537 96.446 80.296 69.248 90 62C93.618 59.483 113.008 57.232 132.313 57.246C151.409 57.259 170.42 59.51 174 62C183.704 69.248 187.463 96.446 187 98C187.327 99.223 188.653 99.488 189 98C189.72 87.702 189 34.274 132 35C75 35.726 74.28 87.702 75 98Z" fill="white" />
			</mask>
			<g mask="url(#mask5)">
				<path fill-rule="evenodd" clip-rule="evenodd" d="M75 98C75.347 99.488 76.673 99.223 77 98C76.537 96.446 80.296 69.248 90 62C93.618 59.483 113.008 57.232 132.313 57.246C151.409 57.259 170.42 59.51 174 62C183.704 69.248 187.463 96.446 187 98C187.327 99.223 188.653 99.488 189 98C189.72 87.702 189 34.274 132 35C75 35.726 74.28 87.702 75 98Z" fill="#28354B" />
				<path fill-rule="evenodd" clip-rule="evenodd" d="M74 34H338V314H74V34Z" fill="#724133" />
			</g>
		</g>
	</g>
</svg>
